<?xml version="1.0" encoding="utf-8"?>
<!-- Generator: Adobe Illustrator 27.2.0, SVG Export Plug-In . SVG Version: 6.00 Build 0)  -->
<!DOCTYPE svg PUBLIC "-//W3C//DTD SVG 1.1//EN" "http://www.w3.org/Graphics/SVG/1.1/DTD/svg11.dtd" [
	<!ENTITY st0 "fill:#42BA85;">
	<!ENTITY st1 "fill:#F2E141;">
	<!ENTITY st2 "fill:#C54398;">
	<!ENTITY st3 "fill:#E0B3D3;">
	<!ENTITY st4 "opacity:0.6;fill:#7779B9;stroke:#FFFFFF;stroke-width:0.25;stroke-miterlimit:10;">
	<!ENTITY st5 "fill:#9E81BB;">
	<!ENTITY st6 "fill:none;stroke:#231F20;stroke-width:0.5254;stroke-miterlimit:10;">
	<!ENTITY st7 "fill:#39459A;">
	<!ENTITY st8 "fill:#36B886;">
	<!ENTITY st9 "opacity:0.6;fill:#20BCBB;stroke:#FFFFFF;stroke-width:0.25;stroke-miterlimit:10;">
	<!ENTITY st10 "fill:#4FB6E8;">
	<!ENTITY st11 "fill:#D18E6E;">
	<!ENTITY st12 "fill:#D39FC8;">
	<!ENTITY st13 "fill:#81B5D5;">
	<!ENTITY st14 "fill:none;stroke:#231F20;stroke-width:0.4;stroke-miterlimit:10;">
	<!ENTITY st15 "fill:none;stroke:#231F20;stroke-width:0.7165;stroke-miterlimit:10;">
	<!ENTITY st16 "opacity:0.2;">
	<!ENTITY st17 "fill:none;stroke:#020202;stroke-width:0.9554;stroke-linecap:round;stroke-linejoin:round;stroke-miterlimit:10;">
	<!ENTITY st18 "fill:none;stroke:#231F20;stroke-width:0.2866;stroke-miterlimit:10;">
	<!ENTITY st19 "fill:#231F20;">
	<!ENTITY st20 "font-family:'Arial', sans-serif; font-weight:bold;">
	<!ENTITY st21 "font-size:5.244px;">
	<!ENTITY st22 "fill:#EB9593;">
	<!ENTITY st23 "font-size:5.4054px;">
	<!ENTITY st24 "fill:#EC2227;">
	<!ENTITY st25 "font-size:8.5801px;">
	<!ENTITY st26 "fill:#4CBC87;">
	<!ENTITY st27 "fill:none;stroke:#20BCBB;stroke-miterlimit:10;">
	<!ENTITY st28 "fill:#F0EEC4;">
	<!ENTITY st29 "fill:#FFFFFF;">
	<!ENTITY st30 "fill:#020202;">
	<!ENTITY st31 "font-size:9.0687px;">
	<!ENTITY st32 "opacity:0.3;fill:#BF1D6E;">
	<!ENTITY st33 "opacity:0.6;fill:#10BBBB;">
	<!ENTITY st34 "font-family:'Arial', sans-serif;">
	<!ENTITY st35 "fill:none;stroke:#231F20;stroke-width:0.5869;stroke-miterlimit:10;">
	<!ENTITY st36 "opacity:0.6;fill:#7579B9;">
]>
<svg version="1.1" id="Layer_1" xmlns="http://www.w3.org/2000/svg" xmlns:xlink="http://www.w3.org/1999/xlink" x="0px" y="0px"
	 viewBox="0 0 322.5043 286.1111" style="enable-background:new 0 0 322.5043 286.1111;" xml:space="preserve">
<g>
	<g>
		<path style="&st0;" d="M43.7991,194.3673c4.715-1.0821,9.2747-2.6767,13.8177-4.3096c4.5347-1.6608,9.0461-3.3842,13.5973-4.9819
			c9.0675-3.3053,18.194-6.4373,27.4599-9.1533c0.3233,0.2109,0.3192,0.1987,0.3192,0.1987
			c-9.0534,3.4742-18.1575,6.7948-27.3099,9.9769c-4.5874,1.5656-9.1253,3.2898-13.7954,4.6059
			C53.2282,192.0497,48.5436,193.314,43.7991,194.3673z"/>
	</g>
</g>
<g>
	<g>
		<path style="&st1;" d="M111.7308,81.8035c0.311,0.4177,0.6469,0.7972,1.0085,1.1416l1.2559,0.818
			c0.8312,0.5563,1.6486,1.1378,2.4463,1.7518c0.7979,0.6136,1.5752,1.2606,2.3283,1.9405c0.3803,0.3369,0.7354,0.6978,1.1215,1.035
			c0.2325,0.4672,0.3856,0.9934,0.5047,1.5338c-0.0114,0.0717,0.0199,0.0472,0.0115,0.0538l-1.4826-0.7173
			c-0.3004-0.3904-0.6213-0.764-0.9415-1.1383c-0.6454-0.7444-1.3213-1.4634-2.0248-2.1573
			c-0.7036-0.694-1.4348-1.3628-2.1863-2.0117l-1.1414-0.9594C112.3439,82.653,112.0431,82.2229,111.7308,81.8035z"/>
	</g>
</g>
<g>
	<g>
		<g>
			<path style="&st2;" d="M211.6125,230.3702c-0.6549-1.4022-1.4525-2.5198-1.7237-3.898
				c-0.3658-1.4633-0.9746-2.8273-1.6831-4.1102c-1.4165-2.5742-3.2168-4.852-4.6978-7.381
				c-1.5411-2.5177-2.3621-5.4089-3.5872-7.9589c-1.2325-2.573-2.8107-4.9695-4.4142-7.3927
				c1.8136-1.2399,1.8136-1.2399,1.8136-1.2399c1.4517,2.5295,2.9409,5.107,4.0748,7.898c1.1459,2.8214,1.7429,5.6393,3.0527,8.1255
				c1.2691,2.5377,2.9458,4.96,4.2345,7.6759c0.6446,1.354,1.1864,2.7933,1.4719,4.3113
				C210.3228,227.7604,211.0342,228.9187,211.6125,230.3702z"/>
		</g>
	</g>
</g>
<g>
	<g>
		<g>
			<path style="&st2;" d="M215.6618,226.356c-0.8202-1.5823-1.808-3.0692-2.927-4.4415c-1.1025-1.3795-2.1362-2.8062-3.2108-4.2111
				c-1.0548-1.4151-2.1105-2.8338-3.3591-4.0555c-1.2391-1.2231-2.6824-2.2348-4.2912-2.8132
				c0.1869-0.7143,0.1869-0.7143,0.1869-0.7143c1.7117,0.6727,3.2118,1.7914,4.4529,3.0985
				c1.2522,1.3052,2.2764,2.7846,3.2837,4.2383c1.0252,1.441,2.0078,2.8997,3.0688,4.3284
				C213.9497,223.2094,214.8933,224.7405,215.6618,226.356z"/>
		</g>
	</g>
</g>
<g>
	<g>
		<g>
			<path style="&st3;" d="M165.5058,78.895c1.7218,3.2303,2.0356,7.1991,1.5768,10.9885c-0.2219,1.9143-0.5759,3.8387-0.6812,5.7786
				c-0.1438,1.945,0.2044,3.8682,0.9585,5.6258c3.136,7.0481,7.2139,13.672,12.0706,19.5443
				c-2.1182,1.8318-2.1182,1.8318-2.1182,1.8318c-4.6871-6.4036-8.4321-13.3799-11.2349-20.8149
				c-0.3372-0.9674-0.6108-1.9978-0.7384-3.0602c-0.135-1.0665-0.0976-2.1426,0.0134-3.1553
				c0.2258-2.0366,0.7001-3.941,1.0339-5.8178C167.063,86.1342,167.0163,82.239,165.5058,78.895z"/>
		</g>
	</g>
</g>
<g>
	<g>
		<path style="&st3;" d="M156.9448,80.2144c0.2166,0.929,0.565,1.8115,0.9521,2.6747c0.4741,0.819,0.9793,1.618,1.5074,2.3991
			c1.0478,1.5735,2.2509,3.011,3.4454,4.4689c0.5836,0.7391,1.1387,1.5269,1.5589,2.3963c0.4253,0.8628,0.7466,1.7651,1.0658,2.6472
			c0.3254,0.8819,0.6263,1.7714,0.9718,2.6471c0.1562,0.9338,0.2943,1.8731,0.304,2.8517
			c-0.0288,0.1062,0.0128,0.0934,0.0016,0.0968c-0.5565-0.8152-0.9907-1.6679-1.4692-2.5069l-0.789-2.7153
			c-0.266-0.9062-0.52-1.793-0.8637-2.6224c-0.3351-0.8282-0.7958-1.5915-1.3227-2.3525c-1.0763-1.4984-2.2363-3.0661-3.1889-4.7094
			c-0.4855-0.8212-0.9435-1.6581-1.3721-2.5096C157.4565,82.0576,157.16,81.1482,156.9448,80.2144z"/>
	</g>
</g>
<g>
	<g>
		<g>
			<path style="&st3;" d="M170.9735,11.9238c-0.708,0.4821-1.3289,1.1955-1.6468,2.0194c-0.3343,0.8232-0.3653,1.6602-0.3095,2.4185
				c0.1153,1.537,0.5982,2.8673,1.052,4.169c0.4672,1.2896,0.9977,2.5441,1.3005,3.7532c0.2858,1.2424,0.399,2.5343,0.3804,3.8414
				c-0.1384,5.2651-2.2363,10.4834-2.3668,16.0102c-0.0562,2.7594,0.4386,5.4688,1.0856,8.1006
				c0.6676,2.6318,1.4064,5.233,2.099,7.8523c1.377,5.2377,2.7083,10.4914,3.8488,15.7939
				c2.2861,10.5958,3.9337,21.3903,4.1256,32.3238c0.044,5.4599-0.1913,10.9474-0.9819,16.3911
				c-0.8337,5.4306-2.0598,10.8285-3.8858,16.0561c-3.3518-0.6903-3.3518-0.6903-3.3518-0.6903
				c1.862-4.987,3.2739-10.1386,4.2406-15.3921c0.8884-5.2691,1.3283-10.6154,1.4359-15.9797
				c0.0634-5.3681-0.2635-10.7452-0.7985-16.1066c-0.5674-5.361-1.4214-10.6979-2.3983-16.0162
				c-1.0017-5.3156-2.1823-10.6046-3.424-15.8838c-0.6273-2.6459-1.2905-5.2498-1.9073-7.9503
				c-0.5948-2.6956-1.0567-5.511-0.9427-8.3921c0.2668-5.7609,2.5111-10.8985,2.7928-16.0721
				c0.058-1.2822-0.0114-2.5486-0.2506-3.7735c-0.2604-1.1795-0.75-2.4552-1.1914-3.7653c-0.426-1.322-0.8801-2.681-0.9672-4.2447
				c-0.0429-0.7709,0.0082-1.6229,0.3616-2.4533C169.611,13.1017,170.2533,12.392,170.9735,11.9238z"/>
		</g>
	</g>
</g>
<g>
	<g>
		<path style="&st3;" d="M189.089,44.9176c-2.0589,0.5938-3.8861,1.9559-5.2832,3.6137c-1.2743,1.768-2.1895,3.7438-2.8117,5.7824
			c-1.241,4.0961-1.3775,8.3337-1.5371,12.5295l-0.4703,12.6259c-0.0661,2.1053-0.1843,4.2064-0.2076,6.3152
			c-0.3813,2.0795-0.8704,4.1503-1.6009,6.2012c-0.1339,0.1984-0.0471,0.2055-0.0705,0.2036
			c-0.407-2.1528-0.6197-4.2896-0.8196-6.4254l0.5984-6.3094l1.1703-12.621c0.3931-4.1902,0.7618-8.5457,2.2614-12.7006
			c0.7514-2.0733,1.802-4.0537,3.1949-5.7967C185.1171,46.7683,187.0241,45.5109,189.089,44.9176z"/>
	</g>
</g>
<g>
	<g>
		<g>
			<path style="&st3;" d="M190.2134,53.4388c-2.7925,7.3233-6.0103,14.519-9.7085,21.5095
				c-1.8278-1.0263-1.8278-1.0263-1.8278-1.0263C182.9395,67.354,186.7748,60.4967,190.2134,53.4388z"/>
		</g>
	</g>
</g>
<g>
	<g>
		<g>
			<path style="&st3;" d="M180.1752,46.4473c0.0451,0.1173,0.1081,0.507,0.0976,0.7921c0.0018,0.3099-0.0163,0.6243-0.0449,0.9379
				c-0.0483,0.6281-0.1905,1.2525-0.2866,1.8796c-0.2064,1.2538-0.4445,2.5073-0.6115,3.7677
				c-0.1704,1.2598-0.2881,2.5257-0.3348,3.7898c-0.039,1.2587-0.0288,2.5393,0.209,3.7332
				c-0.6775,0.1855-0.6775,0.1855-0.6775,0.1855c-0.2064-1.3253-0.153-2.6211-0.0569-3.9088
				c0.1043-1.2868,0.2815-2.5626,0.5109-3.8277c0.227-1.2701,0.5219-2.512,0.7859-3.7558c0.1246-0.6223,0.297-1.2458,0.3739-1.8669
				c0.0431-0.3111,0.076-0.6235,0.0887-0.9321C180.2541,46.9572,180.2067,46.5711,180.1752,46.4473z"/>
		</g>
	</g>
</g>
<g>
	<g>
		<g>
			<path style="&st3;" d="M158.5224,38.9681c0.9041,2.6634,2.2478,5.1556,3.8268,7.431c0.7673,1.1505,1.527,2.3061,2.1008,3.5686
				c0.5752,1.2599,1.016,2.5826,1.4026,3.9143c0.774,2.658,1.4157,5.3767,2.7336,7.7447c1.3067,2.3668,3.1574,4.4126,5.3396,5.9343
				c-0.7245,1.2035-0.7245,1.2035-0.7245,1.2035c-2.3086-1.7384-4.2017-3.9994-5.5019-6.5688
				c-1.3154-2.5916-1.848-5.4075-2.506-8.0739c-0.3279-1.3392-0.7004-2.6529-1.2074-3.9045
				c-0.4985-1.2499-1.1943-2.4185-1.9157-3.6056C160.5766,44.2576,159.315,41.6718,158.5224,38.9681z"/>
		</g>
	</g>
</g>
<g>
	<g>
		<g>
			<path style="&st3;" d="M179.7982,9.7997c-1.1941,0.6926-1.9565,1.8812-2.405,3.1011c-0.4672,1.2264-0.7236,2.5077-0.9149,3.788
				c-0.3775,2.5641-0.5143,5.1492-0.9588,7.7044c-0.867,5.09-2.5858,10.147-5.6799,14.4065
				c-0.6314-0.3195-0.6314-0.3195-0.6314-0.3195c3.1308-4.0769,4.9736-9.038,5.957-14.0888
				c0.5021-2.531,0.7001-5.1211,1.1358-7.6998c0.2209-1.2866,0.5055-2.5772,1.0051-3.8085
				C177.7851,11.6584,178.5838,10.4679,179.7982,9.7997z"/>
		</g>
	</g>
</g>
<ellipse id="n_x5F_SLK_55_" transform="matrix(0.6433 -0.7656 0.7656 0.6433 -6.626 149.4353)" style="&st4;" cx="157.0628" cy="81.8287" rx="4.0454" ry="4.0455"/>
<ellipse id="n_x5F_SLK_56_" transform="matrix(0.6433 -0.7656 0.7656 0.6433 -2.0858 154.8068)" style="&st4;" cx="165.0976" cy="79.6419" rx="4.0454" ry="4.0455"/>
<ellipse id="n_x5F_SLK_57_" transform="matrix(0.6433 -0.7656 0.7656 0.6433 52.6939 142.5096)" style="&st4;" cx="179.2899" cy="14.703" rx="4.0454" ry="4.0455"/>
<ellipse id="n_x5F_SLK_58_" transform="matrix(0.6433 -0.7656 0.7656 0.6433 47.2157 136.4508)" style="&st4;" cx="170.0484" cy="17.5529" rx="4.0454" ry="4.0455"/>
<ellipse id="n_x5F_SLK_59_" transform="matrix(0.6433 -0.7656 0.7656 0.6433 24.3307 136.1873)" style="&st4;" cx="158.3232" cy="41.9817" rx="4.0454" ry="4.0455"/>
<ellipse id="n_x5F_SLK_60_" transform="matrix(0.6433 -0.7656 0.7656 0.6433 30.2139 157.1174)" style="&st4;" cx="183.7272" cy="46.1328" rx="4.0454" ry="4.0455"/>
<ellipse id="n_x5F_SLK_61_" transform="matrix(0.6433 -0.7656 0.7656 0.6433 31.4361 163.5291)" style="&st4;" cx="191.2193" cy="48.027" rx="4.0454" ry="4.0455"/>
<ellipse id="n_x5F_SLK_62_" transform="matrix(0.6433 -0.7656 0.7656 0.6433 25.1643 167.2228)" style="&st4;" cx="192.0477" cy="56.6047" rx="4.0454" ry="4.0455"/>
<g>
	<g>
		<g>
			<path style="&st1;" d="M126.3305,87.2727c0.5358,1.3526,0.51,2.9281,0.6663,4.4773c0.1595,1.5497,0.4588,3.0746,0.8738,4.5586
				c0.3963,1.4857,1.0005,2.9381,0.9728,4.6402c-0.011,0.8836-0.4212,1.6835-0.4858,2.3012
				c-0.08,0.6202,0.0717,1.3071,0.3473,1.8964c-1.3327,0.606-1.3327,0.606-1.3327,0.606c-0.3155-0.839-0.4587-1.739-0.2832-2.6815
				c0.2075-0.9485,0.613-1.5557,0.6587-2.1813c0.1558-1.337-0.285-2.8559-0.5838-4.3911c-0.3071-1.5533-0.4912-3.1309-0.5314-4.7145
				C126.5944,90.1906,126.7487,88.6687,126.3305,87.2727z"/>
		</g>
	</g>
</g>
<g>
	<g>
		<g>
			<path style="&st1;" d="M122.5171,35.505c1.7424,4.3186,2.6774,8.9825,3.2221,13.6868c0.5324,4.7153,0.7302,9.4831,0.8128,14.2575
				c0.106,4.7717,0.1915,9.5944,1.101,14.2971c0.9455,4.7149,3.3275,8.9122,5.097,13.3642
				c7.2157,17.6747,13.5625,35.958,16.1306,55.1659c-3.2572,0.8345-3.2572,0.8345-3.2572,0.8345
				c-1.9274-18.919-7.6396-37.2893-14.348-55.1866c-1.5829-4.4232-3.9042-8.7477-4.8238-13.7855
				c-0.8175-4.897-0.7646-9.7778-0.7334-14.573c0.0578-4.7888,0.0017-9.5493-0.3882-14.2777
				C124.9252,44.5742,124.1354,39.8907,122.5171,35.505z"/>
		</g>
	</g>
</g>
<g>
	<g>
		<g>
			<path style="&st1;" d="M117.5755,35.6208c1.1874,2.5725,1.9926,5.3375,2.7121,8.109l2.0629,8.3569
				c0.3544,1.3893,0.7365,2.7708,1.1667,4.1338c0.4118,1.3675,0.9512,2.6905,1.3727,4.0869
				c0.4194,1.3882,0.7069,2.8803,0.5528,4.3966c-0.0853,0.7663-0.2046,1.3757,0.0594,1.859
				c0.2469,0.5108,0.7535,0.9564,1.2964,1.3922c-0.6124,0.945-0.6124,0.945-0.6124,0.945
				c-0.5462-0.4752-1.1632-0.9812-1.5709-1.7666c-0.2021-0.3837-0.3085-0.872-0.2917-1.2966c0.01-0.4257,0.088-0.8006,0.1365-1.1384
				c0.2-1.3337,0.0039-2.7128-0.352-4.0699c-0.3525-1.3589-0.8588-2.7207-1.2371-4.1292c-0.3961-1.3983-0.7355-2.8071-1.0488-4.2179
				l-1.7988-8.454C119.3941,41.0286,118.6813,38.2408,117.5755,35.6208z"/>
		</g>
	</g>
</g>
<g>
	<g>
		<path style="&st1;" d="M131.6573,58.8148c0.1683,2.9017,0.9539,5.6265,1.5078,8.4087c0.2853,1.3891,0.5311,2.7933,0.618,4.224
			c0.097,1.4301,0.0316,2.8728-0.1049,4.3035c-0.2737,2.868-0.8416,5.6682-1.0961,8.4714
			c-0.2772,2.8103-0.3365,5.6407-0.3329,8.4962c-0.3312,0.1702-0.3312,0.1702-0.3312,0.1702
			c-0.4986-2.8446-0.6998-5.7555-0.5855-8.6763c0.1035-2.9365,0.6732-5.808,1.0257-8.5866c0.3638-2.8115,0.164-5.4794-0.0083-8.255
			C132.1706,64.5856,131.7869,61.7348,131.6573,58.8148z"/>
	</g>
</g>
<g>
	<g>
		<g>
			<path style="&st1;" d="M107.5575,62.2224c1.8699,5.5645,3.8593,11.2494,7.1415,16.2c0.7907,1.2428,1.5944,2.4711,2.2779,3.7676
				c0.683,1.2964,1.2416,2.6602,1.7524,4.0401l1.4946,4.1537c0.541,1.3659,1.0862,2.7287,1.736,4.044
				c2.5331,5.2943,5.8931,10.1343,9.6145,14.6467c3.7197,4.5231,7.7724,8.7626,11.8674,12.9858
				c-1.4141,1.7007-1.4141,1.7007-1.4141,1.7007c-3.9817-4.3712-7.9623-8.7875-11.6151-13.5006
				c-3.6488-4.706-6.9512-9.7548-9.3932-15.2498c-0.6234-1.3661-1.1471-2.7788-1.659-4.19l-1.374-4.2217
				c-0.4621-1.3852-0.963-2.7403-1.5838-4.0255c-0.6221-1.2847-1.3775-2.5318-2.1353-3.8053
				C111.0857,73.6453,109.2584,67.8572,107.5575,62.2224z"/>
		</g>
	</g>
</g>
<g>
	<g>
		<path style="&st1;" d="M115.8808,60.5196c0.1301,0.7937,0.3121,1.5719,0.4754,2.3518c0.2119,0.7679,0.4025,1.5416,0.5462,2.3254
			c0.2901,1.5642,0.386,3.1818,0.1363,4.7743c-0.2469,1.5925-0.7743,3.1225-1.1895,4.6557
			c-0.2044,0.7673-0.3966,1.5363-0.4815,2.3113c-0.1864,0.7589-0.303,1.5289-0.3299,2.3386
			c-0.0214,0.0833,0.0012,0.0799-0.0049,0.0808c-0.2809-0.7715-0.3368-1.6194-0.3195-2.4516
			c0.1394-0.8172,0.3518-1.6085,0.594-2.3816c0.4813-1.5451,1.0604-3.0393,1.3646-4.5816c0.3073-1.5383,0.2801-3.1323,0.0526-4.6992
			c-0.1125-0.7846-0.2718-1.5646-0.4554-2.3409C116.1637,62.1072,116.0102,61.3168,115.8808,60.5196z"/>
	</g>
</g>
<ellipse id="n_x5F_SLK_43_" transform="matrix(0.1973 -0.9803 0.9803 0.1973 20.1888 161.2286)" style="&st4;" cx="108.5529" cy="68.2855" rx="4.0454" ry="4.0455"/>
<ellipse id="n_x5F_SLK_44_" transform="matrix(0.1973 -0.9803 0.9803 0.1973 33.8083 165.3601)" style="&st4;" cx="117.8857" cy="62.0341" rx="4.0454" ry="4.0455"/>
<ellipse id="n_x5F_SLK_45_" transform="matrix(0.2883 -0.9575 0.9575 0.2883 -0.7514 165.3313)" style="&st4;" cx="110.85" cy="83.1712" rx="4.0454" ry="4.0455"/>
<ellipse id="n_x5F_SLK_46_" transform="matrix(0.1973 -0.9803 0.9803 0.1973 8.82 198.8292)" style="&st4;" cx="125.8303" cy="94.0284" rx="4.0454" ry="4.0455"/>
<ellipse id="n_x5F_SLK_47_" transform="matrix(0.1973 -0.9803 0.9803 0.1973 62.3191 155.0261)" style="&st4;" cx="125.8303" cy="39.4562" rx="4.0454" ry="4.0455"/>
<path id="n_x5F_SLK_48_" style="&st4;" d="M132.1905,57.3883c2.1903,0.4409,3.6085,2.5739,3.1676,4.7642
	c-0.4409,2.1903-2.5739,3.6085-4.7642,3.1676s-3.6085-2.5739-3.1676-4.7642C127.8672,58.3656,130.0002,56.9474,132.1905,57.3883"/>
<ellipse id="n_x5F_SLK_49_" transform="matrix(0.1973 -0.9803 0.9803 0.1973 55.2952 146.4474)" style="&st4;" cx="117.0796" cy="39.4562" rx="4.0454" ry="4.0455"/>
<g>
	<g>
		<g>
			<path style="&st5;" d="M70.4093,107.8551c11.3568,7.4131,22.2501,15.597,32.8375,24.167
				c5.3,4.2729,10.5142,8.6821,15.7063,13.0668c5.1984,4.3644,10.4614,8.6274,16.0622,12.2223
				c-2.0726,3.5598-2.0726,3.5598-2.0726,3.5598c-5.6982-4.0562-10.8525-8.6782-15.8745-13.3361
				c-5.0063-4.6754-9.9634-9.3192-15.0486-13.8602C91.8797,124.5826,81.4155,115.8582,70.4093,107.8551z"/>
		</g>
	</g>
</g>
<g>
	<g>
		<path style="&st5;" d="M90.9588,103.2456c-0.1252,2.1199,0.3199,4.2662,1.0517,6.2653c0.8614,1.9559,1.9447,3.784,3.095,5.5466
			c2.3353,3.5015,4.7514,6.9287,7.1233,10.3963l7.1465,10.3684c1.1932,1.6952,2.4363,3.3257,4.0197,4.4744
			c0.6946,0.6864,1.448,1.287,2.3187,1.9364c0.8205,0.6579,1.7673,1.4325,2.1175,2.5029c0.0117,0.2318,0.0753,0.1962,0.0583,0.206
			c-0.3327-0.4286-0.7596-0.717-1.2154-0.9423c-0.4457-0.2377-0.9259-0.4194-1.4169-0.5993
			c-0.9667-0.3478-2.0539-0.7621-3.0384-1.3796c-1.7678-1.4749-3.093-3.3093-4.231-5.114l-6.69-10.7382
			c-2.2202-3.5915-4.4697-7.1224-6.6662-10.7651c-1.0821-1.8324-2.0966-3.74-2.8842-5.7585
			C91.1734,107.5467,90.8301,105.3723,90.9588,103.2456z"/>
	</g>
</g>
<g>
	<g>
		<path style="&st5;" d="M96.2805,107.9992c0.843,0.7959,1.6768,1.5646,2.3135,2.4685c0.7165,0.8338,1.2246,1.8532,1.3802,2.9699
			c0.1858,1.112,0.0761,2.2678,0.0013,3.4096c-0.0871,1.1447-0.0711,2.2934,0.1218,3.4121
			c0.3768,2.2429,1.3442,4.3292,2.5965,6.1911c0.6363,0.9271,1.3201,1.8225,2.0848,2.6485c0.6138,0.9506,1.2644,1.8864,1.865,2.9048
			c0.0358,0.1249,0.068,0.0927,0.0593,0.1013c-1.0248-0.6037-1.9505-1.3366-2.8668-2.1071
			c-0.7227-0.9306-1.4194-1.8857-2.0333-2.9004c-1.2157-2.0284-2.1422-4.292-2.4237-6.6898
			c-0.1473-1.1903-0.1025-2.4235,0.0469-3.5778c0.1354-1.1489,0.3044-2.2613,0.1881-3.324
			c-0.0876-1.0664-0.5005-2.0605-1.1574-2.9152C97.9306,109.6294,97.125,108.7985,96.2805,107.9992z"/>
	</g>
</g>
<g>
	<g>
		<path style="&st5;" d="M75.3026,120.9455c0.5911,0.3829,1.1594,0.773,1.69,1.2175c0.5641,0.3995,1.0961,0.8508,1.6289,1.3032
			c1.0514,0.924,2.1883,1.7581,3.4198,2.4096c1.2302,0.6542,2.5242,1.1741,3.8496,1.5804c0.6618,0.2055,1.3323,0.3833,2.0097,0.5264
			c0.6527,0.2391,1.3127,0.462,1.9705,0.739c0.0621,0.0439,0.0664,0.0215,0.0653,0.0275c-0.7171,0.014-1.4279-0.0476-2.1417-0.1229
			c-0.6829-0.1943-1.3652-0.3928-2.0335-0.6353c-1.3402-0.472-2.6434-1.0601-3.873-1.7821
			c-1.2302-0.7163-2.3644-1.6242-3.3768-2.5959c-0.5149-0.4767-1.0234-0.9501-1.5678-1.3717
			C76.4515,121.7506,75.8961,121.3312,75.3026,120.9455z"/>
	</g>
</g>
<g>
	<g>
		<path style="&st5;" d="M75.8276,106.8764c0.4617,0.8211,1.0044,1.5841,1.5658,2.3318c0.6253,0.6951,1.2602,1.3802,1.9016,2.0585
			c1.2845,1.355,2.5984,2.6782,3.9204,3.9933l3.968,3.9482l1.9695,1.9971c0.541,0.7695,1.0634,1.5547,1.4895,2.4148
			c0.0227,0.1017,0.0504,0.0784,0.043,0.0847c-0.7912-0.5566-1.5041-1.1725-2.2526-1.755c-0.603-0.711-1.2256-1.4055-1.8457-2.1033
			l-3.7665-4.1584c-1.2579-1.3879-2.5094-2.7856-3.7292-4.2131c-0.6093-0.7144-1.2103-1.4361-1.8032-2.1648
			C76.7964,108.498,76.2895,107.7022,75.8276,106.8764z"/>
	</g>
</g>
<g>
	<g>
		<g>
			<path style="&st7;" d="M29.7855,187.5952c3.4983-0.0724,6.92-0.494,10.3324-0.684c0.8532-0.0491,1.7054-0.0818,2.5569-0.0904
				c0.8544-0.0033,1.7609-0.0389,2.6228-0.1492c1.7408-0.2089,3.4277-0.6122,5.1016-1.011
				c1.6745-0.4146,3.3377-0.7755,5.0374-1.0846c1.6901-0.3315,3.3742-0.6893,5.0524-1.0702
				c3.3565-0.7617,6.6896-1.6139,10.0043-2.5277l4.9624-1.4117c1.6607-0.4709,3.3429-0.9388,5.1275-1.1033
				c1.7689-0.1617,3.5085-0.0542,5.1777-0.1411c1.6506-0.0735,3.2863-0.4415,4.9295-0.8705
				c1.6347-0.4317,3.3059-0.9386,4.9788-1.3633c1.6552-0.4365,3.2998-0.9003,4.9303-1.3976c3.2599-0.9955,6.4625-2.1379,9.5383-3.52
				c1.3457,2.3185,1.3457,2.3185,1.3457,2.3185c-3.2571,1.3542-6.6019,2.4404-9.9719,3.3619
				c-1.6857,0.459-3.3779,0.8802-5.0728,1.2739c-1.697,0.3733-3.3138,0.7993-5.0386,1.2067
				c-1.7104,0.393-3.4827,0.757-5.3463,0.8085c-1.8269,0.0516-3.5406-0.1122-5.1619-0.0317
				c-1.5805,0.0641-3.2258,0.4469-4.8764,0.8569l-5.0359,1.2613c-3.3707,0.8157-6.7596,1.5693-10.1691,2.2307
				c-1.7047,0.3307-3.4145,0.6383-5.1294,0.919c-1.7417,0.2639-3.3519,0.5499-5.0603,0.9163
				c-1.6927,0.3476-3.42,0.7046-5.2099,0.868c-0.8814,0.0868-1.8308,0.1011-2.6899,0.076
				c-0.8464-0.0208-1.6971-0.0153-2.5509,0.0053C36.7553,187.3192,33.2977,187.6336,29.7855,187.5952z"/>
		</g>
	</g>
</g>
<g>
	<g>
		<path style="&st7;" d="M68.8969,196.4487c1.0133-0.0322,1.9924-0.2369,2.9516-0.5158c0.9081-0.4161,1.8017-0.8622,2.6526-1.3795
			c1.7164-1.0042,3.2673-2.267,4.5706-3.7114c1.2839-1.4673,2.3021-3.1236,3.0312-4.8862c0.3559-0.8876,0.6922-1.8056,1.0397-2.768
			c0.2854-0.4276,0.6473-0.8252,1.0289-1.1985c0.3812-0.3719,0.8209-0.7077,1.326-0.9056c0.13-0.0069,0.0842-0.0535,0.0966-0.041
			c-0.3954,0.9983-0.5987,1.9012-0.7425,2.8904c-0.4515,0.8292-0.8335,1.7439-1.3104,2.6573
			c-0.9476,1.8398-2.2095,3.53-3.7027,4.9645c-1.5114,1.4157-3.2399,2.5814-5.0789,3.4547c-0.9131,0.4536-1.8584,0.823-2.8073,1.166
			C70.9217,196.2984,69.9157,196.4201,68.8969,196.4487z"/>
	</g>
</g>
<g>
	<g>
		<path style="&st8;" d="M48.4555,196.8528c0.9896-0.0437,1.9617-0.1805,2.9303-0.3464c0.9513-0.2439,1.8966-0.5169,2.8357-0.8042
			c1.8771-0.5767,3.718-1.2805,5.4545-2.1684c1.7397-0.8799,3.3497-1.9943,4.7339-3.3228c0.6999-0.6647,1.316-1.3678,1.9259-2.1533
			c0.7325-0.6492,1.6163-1.3585,2.6516-1.4854c0.1092,0.0137,0.0952-0.0229,0.099-0.0131c-0.8352,0.5836-1.3517,1.3529-1.8659,2.187
			c-0.6529,0.7026-1.363,1.4726-2.1319,2.1235c-1.5346,1.3265-3.2701,2.4039-5.1041,3.2142
			c-1.8314,0.8197-3.7364,1.4329-5.6589,1.9159c-0.9619,0.2396-1.9267,0.4624-2.894,0.6583
			C50.4355,196.7253,49.4498,196.8111,48.4555,196.8528z"/>
	</g>
</g>
<g>
	<g>
		<g>
			<path style="&st7;" d="M42.1397,153.4728c8.0995,1.1869,16.2273,2.5039,23.7309,5.7627c1.864,0.8231,3.6629,1.792,5.3722,2.911
				c0.8439,0.5789,1.6766,1.1621,2.4655,1.8302c0.7972,0.6493,1.6948,1.2397,2.7046,1.4798c0.9986,0.259,2.0292,0.3137,3.0504,0.44
				l3.0683,0.3435l6.1348,0.7269c4.0885,0.5098,8.1744,1.0837,12.2477,1.7845c4.0818,0.681,8.1253,1.5755,12.146,2.4072
				l24.1746,5.0495c-0.6212,4.2431-0.6212,4.2431-0.6212,4.2431l-24.0193-6.1102c-4.0209-1.0142-7.9815-2.0733-11.9748-2.9255
				c-3.9997-0.8736-8.0356-1.6206-12.0903-2.309l-6.0962-0.9928l-3.0565-0.4771c-1.0137-0.1745-2.014-0.2584-3.2475-0.5959
				c-0.5992-0.1708-1.229-0.4225-1.8042-0.7708c-0.5664-0.3416-1.0336-0.7213-1.4541-1.0797l-1.1493-0.9969l-1.1604-0.8905
				c-1.5837-1.1498-3.2777-2.1804-5.0672-3.0617C58.3,156.7062,50.2054,155.0094,42.1397,153.4728z"/>
		</g>
	</g>
</g>
<g>
	<g>
		<g>
			<path style="&st7;" d="M44.681,170.3419c2.4044-1.7939,5.5562-2.5972,8.597-2.2457c3.144,0.1991,5.5001,2.7403,8.4343,3.5769
				c0.7335,0.1958,1.4946,0.2767,2.2289,0.129c0.7375-0.1424,1.4527-0.4106,2.1426-0.7319c1.3769-0.6423,2.692-1.4734,3.9903-2.2836
				c1.2833-0.8286,2.6194-1.7498,4.2128-2.186c1.5723-0.439,3.1978-0.4788,4.7729-0.3908c0.0535,1.1774,0.0535,1.1774,0.0535,1.1774
				c-1.5072-0.1403-3.0255-0.1561-4.4505,0.1735c-1.4193,0.3159-2.702,1.1029-4.0339,1.9145
				c-1.3618,0.7961-2.6893,1.58-4.1652,2.2265c-0.7347,0.3156-1.4997,0.594-2.3283,0.7335
				c-0.8318,0.1643-1.7286,0.0509-2.5128-0.1783c-1.5989-0.4847-2.9105-1.4119-4.2215-2.2054
				c-1.3162-0.8168-2.6229-1.4871-4.1267-1.6606C50.3078,167.9411,47.1522,168.6217,44.681,170.3419z"/>
		</g>
	</g>
</g>
<g>
	<g>
		<g>
			<path style="&st7;" d="M50.6487,174.4385c1.0289,0.1791,2.0837-0.0627,2.9596-0.543c0.8896-0.4707,1.65-1.1122,2.4629-1.6898
				c0.8193-0.5703,1.7581-1.0138,2.7841-1.1545c1.0207-0.1495,2.1257,0.0867,3.01,0.6794
				c-0.3129,0.5201-0.3129,0.5201-0.3129,0.5201c-0.7488-0.5571-1.6809-0.83-2.6197-0.7493
				c-0.9392,0.0723-1.8582,0.4386-2.6775,0.947c-0.826,0.5229-1.6378,1.1417-2.5702,1.5784
				C52.7643,174.4773,51.6691,174.6697,50.6487,174.4385z"/>
		</g>
	</g>
</g>
<g>
	<g>
		<g>
			<path style="&st7;" d="M43.3523,161.6068c0.9671,0.2861,2.0363,0.3698,3.0155,0.0745c0.9798-0.29,1.7995-0.8737,2.5566-1.4671
				c0.7549-0.6033,1.5242-1.1743,2.4049-1.5818c0.8768-0.4057,1.814-0.6801,2.7684-0.8654
				c3.8555-0.7016,7.8502,0.0313,11.5403,1.3166c-0.3355,1.0944-0.3355,1.0944-0.3355,1.0944
				c-3.5026-1.4248-7.3343-2.3318-11.0743-1.8523c-0.9256,0.13-1.8415,0.3407-2.7005,0.6896
				c-0.8647,0.347-1.6214,0.8413-2.4172,1.4172c-0.7922,0.56-1.6701,1.13-2.6951,1.3847
				C45.3889,162.0763,44.3066,161.9391,43.3523,161.6068z"/>
		</g>
	</g>
</g>
<g>
	<g>
		<path style="&st7;" d="M32.5233,180.0166c0.8937,0.4668,1.9153,0.6553,2.9128,0.7094c1.0027,0.0602,1.9996,0.0103,2.9912-0.0052
			c1.9593-0.035,4.0415,0.124,5.7595,1.2355c0.859,0.5355,1.5479,1.2821,2.3247,1.8768c0.7657,0.6212,1.6832,0.9779,2.6668,0.9627
			c0.9746-0.0026,1.9926-0.0628,2.9857,0.0096l2.9788,0.2122c0.0957,0.1044,0.0957,0.1044,0.0957,0.1044
			c-2.0138-0.0021-3.9799-0.1167-5.9925,0.0428c-0.5112,0.0048-1.0449-0.0419-1.555-0.2142
			c-0.5082-0.171-0.9682-0.4481-1.3804-0.7585c-0.8278-0.6233-1.5004-1.3682-2.301-1.8826
			c-1.6106-1.0774-3.6098-1.2493-5.5609-1.3438C36.5004,180.8745,34.3485,180.9696,32.5233,180.0166z"/>
	</g>
</g>
<ellipse id="n_x5F_SLK_29_" transform="matrix(0.6433 -0.7657 0.7657 0.6433 -133.1931 110.0388)" style="&st9;" cx="51.4873" cy="197.9504" rx="4.0454" ry="4.0455"/>
<ellipse id="n_x5F_SLK_30_" transform="matrix(0.6433 -0.7657 0.7657 0.6433 -129.6443 104.9491)" style="&st9;" cx="47.7999" cy="191.5973" rx="4.0454" ry="4.0455"/>
<ellipse id="n_x5F_SLK_31_" transform="matrix(0.6433 -0.7657 0.7657 0.6433 -131.1292 92.0117)" style="&st9;" cx="33.1742" cy="186.7221" rx="4.0454" ry="4.0455"/>
<ellipse id="n_x5F_SLK_32_" transform="matrix(0.6433 -0.7657 0.7657 0.6433 -125.6853 89.9114)" style="&st9;" cx="33.6423" cy="179.83" rx="4.0454" ry="4.0455"/>
<ellipse id="n_x5F_SLK_33_" transform="matrix(0.6433 -0.7657 0.7657 0.6433 -114.136 102.0955)" style="&st9;" cx="52.4919" cy="173.5285" rx="4.0454" ry="4.0455"/>
<ellipse id="n_x5F_SLK_34_" transform="matrix(0.6433 -0.7657 0.7657 0.6433 -112.1268 97.0145)" style="&st9;" cx="48.044" cy="168.8318" rx="4.0454" ry="4.0455"/>
<ellipse id="n_x5F_SLK_35_" transform="matrix(0.6433 -0.7657 0.7657 0.6433 -107.0307 90.5688)" style="&st9;" cx="43.6751" cy="160.1403" rx="4.0454" ry="4.0455"/>
<ellipse id="n_x5F_SLK_36_" transform="matrix(0.6433 -0.7657 0.7657 0.6433 -102.1646 86.4103)" style="&st9;" cx="41.6455" cy="152.8392" rx="4.0454" ry="4.0455"/>
<g>
	<g>
		<g>
			<g>
				<path style="&st10;" d="M142.9262,250.2365c-0.2301-4.3055-0.686-8.5358-0.7722-12.7975
					c-0.0997-4.2527,0.1718-8.5492,1.2749-12.7268c0.5804-2.0764,1.3634-4.1087,2.3872-6.0401
					c0.2511-0.4846,0.5594-0.9366,0.838-1.4081c0.2826-0.4693,0.568-0.9383,0.9014-1.3791c0.6461-0.8922,1.347-1.7389,2.0735-2.5446
					c1.445-1.6228,2.9741-3.1251,4.3266-4.7015c1.3581-1.5672,2.5341-3.2249,3.2148-5.0014c1.319,0.4757,1.988,0.6918,2.3208,0.8033
					c0.3338,0.1095,0.3338,0.1095,0.3338,0.1095c-0.967,2.1951-2.4292,4.0264-3.9592,5.6252
					c-1.5347,1.6059-3.147,3.0335-4.6281,4.5142c-0.7462,0.7368-1.4422,1.4941-2.0909,2.2765
					c-0.3246,0.3868-0.6275,0.7943-0.9072,1.2238l-0.8641,1.2655c-1.0438,1.7588-1.9274,3.6206-2.5817,5.5829
					c-1.294,3.9333-1.8059,8.1369-1.9403,12.3641C142.7029,241.6373,142.9288,245.9102,142.9262,250.2365z"/>
			</g>
		</g>
	</g>
	<g>
		<g>
			<path style="&st10;" d="M119.1263,268.6502c1.3579-2.2342,2.5488-4.5413,3.682-6.8729l2.9752-7.1863
				c2.0173-4.7769,4.1187-9.5215,6.3854-14.1964c2.2665-4.6743,4.699-9.2797,7.3726-13.761l2.051-3.336
				c0.6994-1.1037,1.451-2.172,2.1244-3.2984c0.8513-0.9981,1.7723-1.9414,2.6857-2.8825c0.9518-0.9119,1.944-1.7854,2.9712-2.6181
				c0.2516-0.1252,0.1846-0.1809,0.2027-0.1659c-0.6009,1.1937-1.2204,2.36-1.8613,3.5002
				c-0.6082,1.1664-1.2348,2.3102-1.8605,3.4479l-2.2745,3.1274l-2.1767,3.2007c-2.8467,4.3085-5.4721,8.7717-7.9414,13.3262
				c-2.4697,4.5551-4.7842,9.2018-7.0185,13.8922l-3.3017,7.0646C121.8037,264.1423,120.4927,266.4081,119.1263,268.6502z"/>
		</g>
	</g>
	<g>
		<g>
			<path style="&st10;" d="M126.0788,267.765c0.3778-0.7693,0.6145-1.5838,0.8098-2.4058c0.0917-0.8402,0.1492-1.6824,0.1791-2.5234
				c0.0594-1.6836-0.0137-3.3587-0.1827-5.0227c-0.1851-1.6576-0.2272-3.3995,0.0704-5.0916
				c0.1279-0.8483,0.3336-1.6777,0.516-2.5105c0.3884-0.7677,0.8183-1.5058,1.386-2.191c0.0886-0.0565,0.0435-0.0726,0.0556-0.0682
				c0.0224,0.8994-0.0885,1.7507-0.1189,2.6078c-0.2786,0.7769-0.509,1.5634-0.7007,2.3518
				c-0.4051,1.5848-0.4963,3.1534-0.4421,4.8362c0.0432,1.6869-0.0111,3.4131-0.1992,5.1038
				c-0.0938,0.8477-0.2177,1.6915-0.3712,2.5295C126.7608,266.1902,126.4607,266.9931,126.0788,267.765z"/>
		</g>
	</g>
	<g>
		<g>
			<path style="&st10;" d="M115.1161,265.2817c0.3298-0.673,0.6534-1.3123,1.0362-1.9213c0.3065-0.6487,0.6835-1.2713,1.1065-1.8655
				c0.8473-1.1902,1.8635-2.2691,2.8969-3.3176l3.1133-3.1308c0.5153-0.5257,1.046-1.0341,1.5487-1.5739
				c0.6216-0.407,1.2546-0.8015,1.9682-1.1058c0.0895-0.0093,0.0633-0.0385,0.0704-0.0307c-0.3731,0.6889-0.823,1.292-1.2451,1.9263
				l-1.6724,1.4495l-3.3346,2.9073c-1.1011,0.9681-2.1734,1.9536-3.089,3.0584c-0.4568,0.5519-0.8723,1.1335-1.2197,1.7505
				C115.8258,263.9798,115.4492,264.606,115.1161,265.2817z"/>
		</g>
	</g>
	<g>
		<g>
			<path style="&st10;" d="M136.3373,251.0905c0.2113-0.6559,0.3462-1.3082,0.4922-1.9591
				c0.0688-0.6625,0.1547-1.3248,0.2639-1.9857c0.2247-1.3199,0.5479-2.6294,0.9666-3.914
				c0.4188-1.2847,0.9331-2.5446,1.5404-3.7655c0.302-0.6119,0.6431-1.2024,0.9701-1.807c0.4794-0.5005,0.9884-0.9746,1.6001-1.3472
				c0.0819-0.0199,0.0512-0.0443,0.0595-0.0377c-0.1047,0.3477-0.2221,0.6792-0.354,0.9955l-0.3501,0.9702
				c-0.3868,0.5343-0.7399,1.0917-1.0855,1.6543c-0.6796,1.1322-1.2765,2.316-1.7848,3.5383
				c-0.5083,1.2223-0.9279,2.4831-1.253,3.7692c-0.1586,0.6441-0.2973,1.2929-0.4159,1.9463
				C136.7397,249.7816,136.5515,250.432,136.3373,251.0905z"/>
		</g>
	</g>
</g>
<ellipse id="n_x5F_SLK_28_" transform="matrix(0.6433 -0.7657 0.7657 0.6433 -124.6358 123.8574)" style="&st9;" cx="70.5949" cy="195.6768" rx="4.0454" ry="4.0455"/>
<ellipse id="n_x5F_SLK_5_" transform="matrix(1 -0.0053 0.0053 1 -0.9875 1.2672)" style="&st4;" cx="239.1249" cy="187.3621" rx="4.0454" ry="4.0455"/>
<ellipse id="n_x5F_SLK_4_" transform="matrix(1 -0.0053 0.0053 1 -0.9289 1.2268)" style="&st4;" cx="231.526" cy="176.2674" rx="4.0454" ry="4.0455"/>
<g>
	<g>
		<path style="&st11;" d="M185.3707,253.4546c0.4717-2.2495,0.0426-4.5676-0.5399-6.7278
			c-0.6253-2.1414-0.8563-4.4248-1.6693-6.5098c-0.3718-1.0576-0.7568-2.1253-0.9783-3.2538
			c-0.2206-1.1275-0.2661-2.285-0.1797-3.4248c0.0671-1.1363,0.3396-2.2879,0.6808-3.3464c0.1612-0.5357,0.316-1.0662,0.4165-1.6054
			c0.1006-0.5369,0.1124-1.11,0.1821-1.6628c0.2095-0.0928,0.2095-0.0928,0.2095-0.0928c0.0082,0.5693,0.0428,1.1295,0.0185,1.7064
			c-0.0443,0.5787-0.1535,1.1472-0.2722,1.7025c-0.2595,1.1172-0.4648,2.162-0.4857,3.2733
			c-0.0444,1.0965,0.0223,2.1891,0.2319,3.244c0.2053,1.0554,0.5651,2.0973,0.9178,3.1735c0.37,1.059,0.6934,2.2506,0.8851,3.3661
			l0.5207,3.2958C185.6851,248.8348,185.8698,251.2082,185.3707,253.4546z"/>
	</g>
</g>
<g>
	<g>
		<g>
			<path style="&st11;" d="M173.1199,260.5253c-0.2933-2.1887,0.2214-4.4665,1.0985-6.6557
				c0.8695-2.1956,2.0354-4.3535,2.9658-6.6052c0.4751-1.1162,0.9461-2.2564,1.2416-3.4518
				c0.1615-0.5918,0.2145-1.2203,0.3183-1.797c0.1162-0.586,0.3214-1.157,0.5556-1.7144c0.4798-1.1147,1.0474-2.1845,1.4336-3.3261
				c0.4067-1.134,0.7541-2.2859,1.0323-3.4525c1.1228-4.6727,1.2258-9.4955,0.7549-14.2285
				c-0.2328-2.3706-0.6028-4.7278-1.0578-7.0747c-0.4627-2.3603-0.9203-4.6789-1.8416-6.5946
				c1.5537-0.7579,2.3188-1.1653,2.7031-1.3642c0.3832-0.2017,0.3832-0.2017,0.3832-0.2017
				c1.0595,2.5466,1.3772,5.1128,1.7148,7.5208c0.3275,2.4445,0.5713,4.9142,0.6746,7.4024
				c0.2099,4.9661-0.1821,10.0544-1.6404,14.904c-0.3601,1.2113-0.7934,2.4029-1.2884,3.5693
				c-0.2432,0.5689-0.5184,1.1801-0.8225,1.7466c-0.295,0.5596-0.5922,1.0824-0.8423,1.5836
				c-0.2542,0.5024-0.4576,0.9841-0.5936,1.4573c-0.1079,0.376-0.219,1.173-0.4267,1.7969
				c-0.3905,1.292-0.9514,2.4456-1.4956,3.5459c-1.0781,2.2319-2.3759,4.3307-3.3638,6.4354
				C173.6276,256.1257,172.9737,258.3141,173.1199,260.5253z"/>
		</g>
	</g>
</g>
<g>
	<g>
		<g>
			<path style="&st11;" d="M180.112,267.1628c2.2585-4.9696,3.1972-10.6349,1.9715-15.9126
				c-0.5971-2.6259-1.6752-5.1373-2.0334-7.9017c-0.1765-1.376-0.149-2.8021,0.1703-4.1864
				c0.3163-1.3826,0.9218-2.7114,1.758-3.8679c1.04,0.63,1.04,0.63,1.04,0.63c-1.6237,2.0107-2.3262,4.6362-2.0741,7.2397
				c0.2172,2.6175,1.1926,5.179,1.7199,7.9022C183.7429,256.5584,182.5573,262.2646,180.112,267.1628z"/>
		</g>
	</g>
</g>
<ellipse id="n_x5F_SLK_20_" transform="matrix(0.9893 -0.1458 0.1458 0.9893 -35.8294 27.8114)" style="&st4;" cx="171.8172" cy="258.337" rx="4.0454" ry="4.0455"/>
<ellipse id="n_x5F_SLK_21_" transform="matrix(0.9893 -0.1458 0.1458 0.9893 -36.6318 29.3972)" style="&st4;" cx="182.2348" cy="264.6042" rx="4.0454" ry="4.0455"/>
<ellipse id="n_x5F_SLK_22_" transform="matrix(0.9893 -0.1458 0.1458 0.9893 -34.5166 29.949)" style="&st4;" cx="187.0562" cy="250.4499" rx="4.0454" ry="4.0455"/>
<g>
	<g>
		<g>
			<path style="&st12;" d="M239.2574,187.8189c-2.6183,0.9716-5.2365,1.9435-7.9427,2.6262
				c-2.6982,0.7143-5.5034,1.0013-8.3018,0.9433c-2.7961-0.0283-5.5933-0.2503-8.3638-0.0688
				c-2.7547,0.1765-5.5343,0.7724-7.8368,2.2267c-0.5025-0.5523-0.5025-0.5523-0.5025-0.5523
				c2.4827-1.5266,5.39-2.0823,8.2078-2.2175c2.8399-0.1319,5.6465,0.1534,8.4365,0.2447c2.791,0.1218,5.5696-0.0938,8.2855-0.7463
				C233.9586,189.655,236.6081,188.7368,239.2574,187.8189z"/>
		</g>
	</g>
</g>
<g>
	<g>
		<g>
			<path style="&st13;" d="M231.8003,176.9709c-9.0457,4.8989-16.3763,12.253-25.6388,16.8642
				c-0.4269-0.6037-0.4269-0.6037-0.4269-0.6037C215.0145,188.9183,222.6056,181.6754,231.8003,176.9709z"/>
		</g>
	</g>
</g>
<ellipse id="n_x5F_SLK_39_" transform="matrix(0.8484 -0.5293 0.5293 0.8484 -44.601 56.6331)" style="&st4;" cx="76.5872" cy="106.1948" rx="3.9518" ry="3.9518"/>
<path id="n_x5F_SLK_40_" style="&st4;" d="M77.0561,117.8218c1.1552,1.8517,0.5906,4.2893-1.2611,5.4445
	c-1.8517,1.1552-4.2893,0.5906-5.4445-1.2612c-1.1552-1.8517-0.5906-4.2893,1.2611-5.4445
	C73.4633,115.4054,75.9009,115.97,77.0561,117.8218"/>
<ellipse id="n_x5F_SLK_41_" transform="matrix(0.8456 -0.5338 0.5338 0.8456 -57.3234 56.9169)" style="&st4;" cx="69.7377" cy="127.5606" rx="4.0454" ry="4.0455"/>
<ellipse id="n_x5F_SLK_42_" transform="matrix(0.8484 -0.5293 0.5293 0.8484 -47.4301 52.9825)" style="&st4;" cx="68.7983" cy="109.3095" rx="3.9518" ry="3.9518"/>
<ellipse id="n_x5F_SLK_25_" transform="matrix(0.4431 -0.8965 0.8965 0.4431 -167.7936 262.7453)" style="&st9;" cx="127.586" cy="266.4292" rx="4.0455" ry="4.0454"/>
<path id="n_x5F_SLK_23_" style="&st9;" d="M135.4058,253.9965c-2.0738-0.8314-3.0809-3.1865-2.2496-5.2603
	c0.8314-2.0738,3.1865-3.081,5.2603-2.2496s3.0809,3.1865,2.2496,5.2603S137.4796,254.8279,135.4058,253.9965"/>
<ellipse id="n_x5F_SLK_24_" transform="matrix(0.0571 -0.9984 0.9984 0.0571 -112.8027 381.0456)" style="&st9;" cx="145.3278" cy="250.2416" rx="4.0454" ry="4.0455"/>
<ellipse id="n_x5F_SLK_26_" transform="matrix(0.9811 -0.1934 0.1934 0.9811 -49.5427 28.0987)" style="&st9;" cx="119.1263" cy="267.765" rx="4.0455" ry="4.0454"/>
<ellipse id="n_x5F_SLK_27_" transform="matrix(0.9811 -0.1934 0.1934 0.9811 -48.5978 27.0128)" style="&st9;" cx="114.0374" cy="262.383" rx="4.0455" ry="4.0454"/>
<g>

		<ellipse id="n_x5F_SLK_15_" transform="matrix(0.0064 -1 1 0.0064 -20.542 436.0896)" style="&st4;" cx="209.1629" cy="228.3812" rx="3.9217" ry="4.1094"/>

		<ellipse id="n_x5F_SLK_16_" transform="matrix(1 -0.0024 0.0024 1 -0.5263 0.514)" style="&st4;" cx="216.8526" cy="222.5477" rx="4.1093" ry="3.9218"/>
	<text transform="matrix(1.0464 0.0058 0.0058 1 202.1088 236.3633)" style="&st19; &st20; &st21;">PI4K2B</text>
	<text transform="matrix(1.0464 0.0058 0.0058 1 216.702 230.8812)" style="&st19; &st20; &st21;">PI4K2A</text>
</g>
<ellipse id="n_x5F_SLK_37_" transform="matrix(0.8456 -0.5338 0.5338 0.8456 -43.1198 69.5255)" style="&st4;" cx="98.6375" cy="109.3095" rx="4.0454" ry="4.0455"/>
<ellipse id="n_x5F_SLK_38_" transform="matrix(0.8456 -0.5338 0.5338 0.8456 -41.0524 64.3287)" style="&st4;" cx="90.6869" cy="103.1368" rx="4.0454" ry="4.0455"/>
<g>
	<g>
		<g>
			<g>
				<path style="&st22;" d="M289.9211,86.5524c-2.8929,1.8936-6.1772,3.2242-9.5642,4.2473
					c-3.3928,1.0261-6.8964,1.764-10.3997,2.5193c-3.5025,0.7566-7.0225,1.5215-10.4318,2.6343
					c-3.4007,1.1087-6.703,2.6017-9.5103,4.7589c-0.6644,0.5741-1.4024,1.096-2.0005,1.7056
					c-0.5952,0.6161-1.1059,1.3187-1.567,2.058c-0.9231,1.483-1.6506,3.104-2.4799,4.7181
					c-1.6905,3.2893-4.0705,6.1239-6.516,8.7806c-2.4543,2.6635-5.0149,5.1698-7.3271,7.8138
					c-1.1398,1.3292-2.2283,2.6843-3.1788,4.1012c-0.92,1.4296-1.7679,2.8906-2.3482,4.4329
					c-1.6301-0.5199-2.4565-0.7532-2.8678-0.8742c-0.4124-0.1184-0.4124-0.1184-0.4124-0.1184
					c0.7818-1.7822,1.7395-3.4605,2.8362-5.0104c1.1164-1.5275,2.313-2.974,3.5796-4.316c2.5188-2.6991,5.2132-5.1172,7.7157-7.6251
					c2.502-2.494,4.8746-5.1083,6.5583-8.0253c0.8634-1.5091,1.6702-3.1581,2.7337-4.7623c0.5333-0.8005,1.135-1.5931,1.8617-2.3187
					l0.5686-0.5279l0.568-0.4337l1.1376-0.8639c3.0964-2.2254,6.6235-3.662,10.1596-4.6753c3.5479-1.0163,7.1353-1.65,10.681-2.2716
					c3.5461-0.6195,7.067-1.214,10.4873-2.0979C283.619,89.5199,286.942,88.3326,289.9211,86.5524z"/>
			</g>
		</g>
	</g>
	<g>
		<g>
			<g>
				<path style="&st22;" d="M283.9233,79.2062c-3.6527,2.1835-7.3031,4.397-10.7375,6.9056
					c-1.7152,1.2547-3.3688,2.5912-4.9183,4.031c-1.5534,1.4168-2.8859,3.1208-4.7394,4.3601
					c-0.5331-0.6533-0.5331-0.6533-0.5331-0.6533c1.7619-1.0664,3.1588-2.7074,4.7953-4.1242
					c1.624-1.418,3.3427-2.7156,5.1133-3.9281C276.4514,83.3776,280.1866,81.2767,283.9233,79.2062z"/>
			</g>
		</g>
	</g>
	<g>
		<g>
			<g>
				<path style="&st22;" d="M262.7229,74.0218c-4.4847,4.5123-9.0439,9.1216-12.2052,14.679
					c-1.5571,2.7699-2.7353,5.7678-3.218,8.8937c-0.2499,1.5628-0.3837,3.155-0.6721,4.746
					c-0.2857,1.5838-0.7367,3.199-1.6294,4.6197c-0.7835-0.325-0.7835-0.325-0.7835-0.325
					c1.7371-2.5801,1.8884-5.8761,2.4463-9.0327c0.5556-3.21,1.8172-6.2636,3.4542-9.0461
					C253.444,82.9773,258.122,78.4535,262.7229,74.0218z"/>
			</g>
		</g>
	</g>
	<g>
		<g>
			<path style="&st22;" d="M242.0415,79.7712c0.2499,0.7304,0.5321,1.4387,0.7962,2.154c0.317,0.693,0.6127,1.3968,0.8822,2.1116
				c0.5424,1.427,0.9722,2.9061,1.3096,4.3974c0.0951,0.3649,0.2352,0.7107,0.4782,0.9799
				c0.2385,0.2763,0.5438,0.5033,0.8283,0.7798c0.2895,0.2652,0.5454,0.646,0.6447,1.0485c0.1078,0.4019,0.1467,0.778,0.2052,1.1609
				c0.1092,0.7652,0.1748,1.536,0.2346,2.3095c-0.0588,0.7756-0.1587,1.5491-0.3735,2.3034
				c-0.0396,0.0736-0.0135,0.0752-0.0206,0.0748c-0.1261-0.7779-0.2086-1.5412-0.3493-2.297
				c0.0007-0.7578-0.0443-1.5155-0.1104-2.2711c-0.0376-0.3727-0.0679-0.7719-0.1348-1.0983
				c-0.0702-0.3357-0.1996-0.5781-0.4443-0.837c-0.2356-0.2588-0.5416-0.5071-0.8176-0.8412
				c-0.2894-0.3406-0.4576-0.7863-0.5399-1.1805c-0.2767-1.5315-0.6257-2.9888-1.1028-4.4444
				c-0.2357-0.7242-0.4973-1.4404-0.7833-2.147C242.543,81.2321,242.2911,80.5053,242.0415,79.7712z"/>
		</g>
	</g>
</g>
<g>
	<g>
		<path style="&st22;" d="M282.4547,129.1216c-2.076-0.5749-4.3065-0.3124-6.371,0.1078c-2.0424,0.5936-4.0135,1.3081-6.0276,1.858
			c-4.0219,1.1286-8.3024,1.2472-12.5054,0.9454c-4.2145-0.2919-8.3863-0.9255-12.5154-0.839
			c-2.0608,0.038-4.1122,0.1817-6.0888,0.6279c-2.0328,0.0734-4.061,0.29-6.2181,0.5471c-0.2393-0.0341-0.2057,0.0476-0.2147,0.0256
			c1.7228-1.352,3.7523-2.3286,5.8738-3.0368c2.1897-0.2803,4.3839-0.3872,6.5532-0.29c4.3547,0.1427,8.5561,1.028,12.6682,1.5471
			c4.1178,0.5309,8.2462,0.6662,12.2434-0.2072c2.0096-0.4248,4.03-1.0274,6.1212-1.5176
			C278.1178,128.6782,280.3767,128.5419,282.4547,129.1216z"/>
	</g>
</g>
<g>
	<g>
		<g>
			<path style="&st22;" d="M271.005,138.7836c-2.9948-0.164-6.0404-0.3645-8.8005-1.7804
				c-2.7708-1.3853-4.6783-4.1752-7.1855-5.2247c0.6881-1.5124,0.6881-1.5124,0.6881-1.5124
				c1.5122,0.8132,2.6138,1.995,3.6566,3.0891c1.0447,1.1095,2.0364,2.1632,3.2433,2.9215
				C265.0292,137.84,268.0283,138.3527,271.005,138.7836z"/>
		</g>
	</g>
</g>
<g>
	<g>
		<g>
			<path style="&st22;" d="M278.0979,136.6472c-0.9522-0.7619-2.1301-0.9521-3.173-1.0409
				c-1.0577-0.0912-2.1082-0.2722-3.1437-0.5709c-2.0705-0.592-4.0476-1.5953-5.8504-2.859
				c0.9525-1.1981,0.9525-1.1981,0.9525-1.1981c1.5337,1.3722,3.261,2.5358,5.1536,3.3358c0.951,0.4026,1.9174,0.698,2.9494,0.9144
				C276.0162,135.4388,277.2389,135.7856,278.0979,136.6472z"/>
		</g>
	</g>
</g>
<g>
	<g>
		<path style="&st22;" d="M255.4716,108.2084c-1.427,0.1659-2.7675,0.7916-3.9986,1.4913c-1.1559,0.8351-2.2562,1.693-3.3601,2.5825
			c-1.0922,0.8961-2.134,1.8786-2.9619,3.018c-0.8356,1.1351-1.4132,2.4143-1.9614,3.7014
			c-1.035,2.5994-2.3115,5.2015-4.0592,7.4899c-0.8576,1.1585-1.8366,2.2246-2.8619,3.2626
			c-0.6039,0.4145-1.2539,0.7633-1.9165,1.0717c-0.655,0.3194-1.3483,0.5664-2.0643,0.7318
			c-0.1646-0.0072-0.1313,0.0509-0.1402,0.0352c0.9997-1.089,1.966-2.0896,2.7874-3.2108c1.0541-0.8426,2.0044-1.8162,2.8934-2.8406
			c0.8835-1.0305,1.6937-2.1297,2.4085-3.2912c0.7236-1.1573,1.325-2.3738,1.9582-3.6549c0.6362-1.2674,1.3276-2.5859,2.2963-3.7586
			c0.9585-1.1664,2.1067-2.1214,3.2738-2.9641c1.1797-0.8366,2.3264-1.6139,3.5473-2.3904
			C252.6544,108.9184,254.0401,108.3704,255.4716,108.2084z"/>
	</g>
</g>
<g>
	<g>
		<g>
			<path style="&st22;" d="M256.6896,116.0563l-3.3022,2.2776c-1.1039,0.7504-2.2302,1.4771-3.4617,2.0252
				c-2.4789,1.159-5.3331,1.0849-7.979,0.9513c0.0072-0.8403,0.0072-0.8403,0.0072-0.8403c2.6496,0.2695,5.344,0.4902,7.7878-0.489
				c1.2231-0.4646,2.3792-1.1245,3.5214-1.8165L256.6896,116.0563z"/>
		</g>
	</g>
</g>
<g>
	<g>
		<path style="&st22;" d="M281.8676,118.0245c-0.8309,0.2958-1.6315,0.6363-2.4383,0.9636
			c-0.7824,0.3807-1.5737,0.7451-2.3759,1.088c-1.6066,0.6793-3.2571,1.2648-4.9401,1.752
			c-1.683,0.4871-3.3984,0.8759-5.1349,1.1618c-0.8685,0.1438-1.7425,0.2474-2.6183,0.3605
			c-0.8852-0.0318-1.7694-0.1001-2.6448-0.2861c-0.0869-0.0394-0.0867-0.0089-0.0867-0.0171
			c0.4381-0.1087,0.8733-0.2017,1.3068-0.2788l1.2925-0.2795c0.867-0.043,1.7314-0.1236,2.5948-0.2173
			c1.7253-0.1999,3.4396-0.5031,5.131-0.9067c1.6914-0.4036,3.3597-0.9077,4.9932-1.5093c0.8154-0.3047,1.6228-0.6298,2.4225-0.9751
			C280.2097,118.6254,281.0325,118.3201,281.8676,118.0245z"/>
	</g>
</g>
<circle id="n_x5F_SLK_2_" style="&st4;" cx="259.2903" cy="76.544" r="4.0944"/>
<circle id="n_x5F_SLK_81_" style="&st4;" cx="284.2256" cy="80.3199" r="4.0944"/>
<ellipse id="n_x5F_SLK_84_" transform="matrix(0.7786 -0.6275 0.6275 0.7786 -15.9176 185.7283)" style="&st4;" cx="255.2447" cy="115.4217" rx="4.0455" ry="4.0454"/>
<circle id="n_x5F_SLK_1_" style="&st4;" cx="289.6231" cy="89.6057" r="4.0944"/>
<circle id="n_x5F_SLK_3_" style="&st4;" cx="277.3222" cy="113.1757" r="4.0944"/>
<circle id="n_x5F_SLK_6_" style="&st4;" cx="280.88" cy="121.2386" r="4.0944"/>
<circle id="n_x5F_SLK_7_" style="&st4;" cx="280.615" cy="130.8607" r="4.0944"/>
<circle id="n_x5F_SLK_80_" style="&st4;" cx="277.952" cy="139.2729" r="4.0944"/>
<circle id="n_x5F_SLK_83_" style="&st4;" cx="269.3212" cy="141.0465" r="4.0944"/>
<circle id="n_x5F_SLK_82_" style="&st4;" cx="254.3375" cy="107.7972" r="4.0944"/>
<g>
	<g>
		<g>
			<g>
				<path style="&st22;" d="M229.8663,67.858c0.7894,5.5976,1.5475,11.1873,1.835,16.8229
					c0.1577,2.8167,0.1711,5.6434,0.0117,8.4685c-0.161,2.8232-0.4765,5.6546-1.1021,8.4366
					c-0.6121,2.7827-1.4703,5.5277-2.6265,8.1687c-1.1702,2.632-2.6124,5.0787-3.4306,7.6455
					c-1.672,5.1654-1.2127,10.7559-0.3507,16.2207c-3.3411,0.6766-3.3411,0.6766-3.3411,0.6766
					c-0.3126-2.8652-0.5249-5.7861-0.4093-8.7474c0.1158-2.9539,0.5734-5.9675,1.638-8.827
					c1.061-2.8855,2.6807-5.3217,3.9158-7.7554c1.2205-2.4458,2.1955-5.0183,2.9281-7.6747
					c1.446-5.3252,1.9287-10.9284,1.918-16.5336C230.8541,79.1453,230.3764,73.5069,229.8663,67.858z"/>
			</g>
		</g>
	</g>
	<g>
		<g>
			<g>
				<path style="&st22;" d="M212.5777,96.6772c0.4361,2.2344,1.5992,4.1805,2.8232,5.9965
					c1.2307,1.8241,2.5641,3.5767,3.6055,5.5263c2.115,3.8683,3.2793,8.3015,3.2235,12.7771
					c-0.8395,0.0773-0.8395,0.0773-0.8395,0.0773c0.2065-4.3418-0.7703-8.7206-2.732-12.6163
					c-0.9633-1.9571-2.2342-3.7523-3.4194-5.6289C214.0634,100.9429,212.9448,98.9333,212.5777,96.6772z"/>
			</g>
		</g>
	</g>
	<g>
		<g>
			<g>
				<path style="&st22;" d="M219.9095,82.3665c0.2382,2.1993,0.4853,4.4165,1.0265,6.5729c0.2759,1.075,0.6189,2.1346,1.0753,3.1435
					c0.4496,1.0128,1.0292,1.9564,1.6211,2.8895c2.4267,3.6559,4.4916,7.849,4.4999,12.4449
					c-0.7565,0.0893-0.7565,0.0893-0.7565,0.0893c0.0716-2.1656-0.3501-4.3404-1.0918-6.3969
					c-0.7383-2.0679-1.7828-4.0028-2.947-5.8949c-0.5693-0.9557-1.1367-1.9342-1.5699-2.9829
					c-0.4422-1.042-0.7589-2.1286-1.009-3.2234C220.2697,86.8125,220.0862,84.5802,219.9095,82.3665z"/>
			</g>
		</g>
	</g>
	<g>
		<g>
			<g>
				<path style="&st22;" d="M225.3364,72.8895c0.5697,3.2968,2.0489,6.2747,3.4135,9.2528c1.3524,2.9773,2.5857,6.1294,2.662,9.5247
					c-0.716,0.0731-0.716,0.0731-0.716,0.0731c0.0642-3.2351-1.0167-6.4-2.2607-9.4213
					C227.1796,79.2908,225.7872,76.217,225.3364,72.8895z"/>
			</g>
		</g>
	</g>
	<g>
		<g>
			<g>
				<path style="&st22;" d="M236.0164,72.3456c-1.2443,2.6102-2.4623,5.2578-3.2808,8.0287
					c-0.8212,2.759-1.2083,5.6685-0.7793,8.472c-0.7199,0.1555-0.7199,0.1555-0.7199,0.1555
					c-0.3312-2.9625,0.1935-5.9434,1.1414-8.7082C233.3245,77.515,234.659,74.9106,236.0164,72.3456z"/>
			</g>
		</g>
	</g>
</g>
<g>
	<g>
		<g>
			<path style="&st22;" d="M279.1439,115.0638c-3.4807,1.4705-6.9196,3.0297-10.3109,4.6774
				c-1.6934,0.8195-3.3849,1.6782-5.0447,2.5297c-0.8285,0.4199-1.6536,0.8183-2.497,1.1557l-2.6192,1.0051
				c-7.0075,2.6759-14.0407,5.2875-21.1654,7.6789c-7.1238,2.3898-14.3393,4.5672-21.6834,6.351
				c-7.4018,1.8243-14.9351,2.7202-22.0497,4.4094c-1.3086-4.8623-1.3086-4.8623-1.3086-4.8623
				c7.6113-1.3755,15.1285-1.8377,22.3598-3.1861c7.3268-1.3476,14.5943-3.0963,21.813-5.0739
				c7.2195-1.9789,14.3903-4.1931,21.5516-6.4789l2.6719-0.8566c0.8149-0.2673,1.6363-0.605,2.4782-0.9722
				c1.6963-0.7524,3.4598-1.5306,5.2019-2.2572C272.0397,117.7167,275.5758,116.3437,279.1439,115.0638z"/>
		</g>
	</g>
</g>
<ellipse id="n_x5F_SLK_79_" transform="matrix(0.7786 -0.6275 0.6275 0.7786 2.9184 169.6782)" style="&st4;" cx="241.9172" cy="80.7034" rx="4.0455" ry="4.0454"/>
<ellipse id="n_x5F_SLK_74_" transform="matrix(0.7753 -0.6316 0.6316 0.7753 6.1651 164.8204)" style="&st4;" cx="234.7028" cy="73.7465" rx="4.0455" ry="4.0454"/>
<ellipse id="n_x5F_SLK_75_" transform="matrix(0.7786 -0.6275 0.6275 0.7786 8.8198 159.4277)" style="&st4;" cx="230.3415" cy="67.2149" rx="4.0455" ry="4.0454"/>
<ellipse id="n_x5F_SLK_76_" transform="matrix(0.7786 -0.6275 0.6275 0.7786 2.3186 157.9824)" style="&st4;" cx="225.0428" cy="75.7054" rx="4.0455" ry="4.0454"/>
<ellipse id="n_x5F_SLK_77_" transform="matrix(0.7786 -0.6275 0.6275 0.7786 -5.9297 157.6171)" style="&st4;" cx="220.4011" cy="87.2117" rx="4.0455" ry="4.0454"/>
<ellipse id="n_x5F_SLK_78_" transform="matrix(0.7786 -0.6275 0.6275 0.7786 -13.8744 155.4276)" style="&st4;" cx="213.3257" cy="97.3758" rx="4.0455" ry="4.0454"/>
<text transform="matrix(1 0.0046 -0.0046 1 205.3875 85.0628)" style="&st19; &st20; &st23;">MTOR</text>
<text transform="matrix(1 0.0046 -0.0046 1 201.0234 93.3731)" style="&st19; &st20; &st23;">TRRAP</text>
<text transform="matrix(1 0.0046 -0.0046 1 257.749 150.3896)" style="&st19; &st20; &st23;">PIK3C2G</text>
<text transform="matrix(1 0.0046 -0.0046 1 284.9789 143.2791)" style="&st19; &st20; &st23;">PIK3C2A</text>
<text transform="matrix(1 0.0046 -0.0046 1 285.9724 133.9798)" style="&st19; &st20; &st23;">PIK3C2B</text>
<text transform="matrix(1 0.0046 -0.0046 1 285.9713 123.0519)" style="&st19; &st20; &st23;">PIK3CB</text>
<text transform="matrix(1 0.0046 -0.0046 1 282.4589 113.5456)" style="&st19; &st20; &st23;">PIK3CD</text>
<text transform="matrix(1 0.0046 -0.0046 1 259.2966 107.5222)" style="&st19; &st20; &st23;">PIK3CG</text>
<text transform="matrix(1 0.0046 -0.0046 1 244.5674 124.385)" style="&st19; &st20; &st23;">PIK3CA</text>
<text transform="matrix(1 0.0046 -0.0046 1 289.5666 81.3012)" style="&st19; &st20; &st23;">PI4KA</text>
<text transform="matrix(1 0.0046 -0.0046 1 298.6651 92.5234)" style="&st19; &st20; &st23;">PI4KB</text>
<text transform="matrix(1 0.0046 -0.0046 1 254.3407 72.0588)" style="&st19; &st20; &st23;">PIK3C3</text>
<text transform="matrix(1 0.0046 -0.0046 1 230.662 88.964)" style="&st19; &st20; &st23;">PRKDC</text>
<text transform="matrix(1 0.0046 -0.0046 1 238.5221 71.2163)" style="&st19; &st20; &st23;">ATM</text>
<text transform="matrix(1 0.0046 -0.0046 1 231.5188 63.5486)" style="&st19; &st20; &st23;">ATR</text>
<text transform="matrix(1 0.0046 -0.0046 1 208.8407 74.1047)" style="&st19; &st20; &st23;">SMG1</text>
<text transform="matrix(1 0 0 1 213.8541 112.3531)" style="&st24; &st20; &st25;">PIKK</text>
<g>
	<g>
		<g>
			<g>
				<path style="&st26;" d="M83.8329,228.3198l12.6371-12.403l6.3191-6.2009c1.0558-1.0296,2.1304-2.0464,3.3114-2.949
					c1.1779-0.9076,2.4841-1.6555,3.8339-2.2836c2.7174-1.2444,5.5279-2.1433,8.2423-3.2678
					c2.7301-1.0923,5.4245-2.2671,8.0854-3.5061c5.3227-2.4766,10.4969-5.2464,15.5006-8.2751
					c1.6885,2.4055,1.6885,2.4055,1.6885,2.4055c-5.2337,2.8861-10.6149,5.5007-16.1262,7.7996
					c-2.7549,1.1508-5.5386,2.2316-8.3508,3.2307c-2.8011,1.0278-5.7077,1.841-8.3351,2.9024
					c-1.3194,0.5434-2.5564,1.1691-3.6976,1.9666c-1.1515,0.7953-2.2412,1.7329-3.3329,2.713l-6.5904,5.9535L83.8329,228.3198z"/>
			</g>
		</g>
	</g>
	<g>
		<g>
			<g>
				<path style="&st0;" d="M113.1697,233.1125c2.0947-2.9195,3.8768-6.0622,5.169-9.3888c1.2933-3.3195,2.081-6.8415,2.0694-10.3592
					c-0.0207-1.7416,0.0118-3.6526,0.8584-5.3585c0.8234-1.6772,1.8916-3.0798,2.8773-4.5656
					c2.0092-2.9349,4.3401-5.8248,7.3678-8.031c1.4386,1.8484,1.4386,1.8484,1.4386,1.8484
					c-2.8472,1.8175-5.1911,4.3651-7.3303,7.1382c-1.0494,1.3952-2.222,2.813-3.0124,4.1998
					c-0.7969,1.3665-0.9502,2.9374-1.0273,4.7352c-0.1819,3.6822-1.1899,7.283-2.6879,10.5867
					C117.3958,227.2343,115.4266,230.3016,113.1697,233.1125z"/>
			</g>
		</g>
	</g>
	<g>
		<g>
			<path style="&st0;" d="M80.9119,216.1328c1.8938-0.7711,3.697-1.5515,5.6501-2.0977c1.9337-0.5771,3.9579-0.953,5.9976-1.0841
				c1.0184-0.0794,2.0445-0.1042,3.0613-0.1069c1.0124-0.0061,2.0149-0.0111,2.9698-0.1994
				c1.9312-0.3285,3.4786-1.7122,5.0005-3.0428c0.2325,0.0883,0.2325,0.0883,0.2325,0.0883
				c-0.661,0.7817-1.3353,1.5664-2.1467,2.2451c-0.7982,0.6816-1.7786,1.2412-2.8482,1.5035
				c-1.0618,0.2668-2.1373,0.3041-3.1647,0.3187c-1.0255,0.0076-2.0259,0.0193-3.0327,0.0695
				c-2.0142,0.0961-3.9724,0.4571-5.9239,0.7371C84.7473,214.8594,82.8364,215.3762,80.9119,216.1328z"/>
		</g>
	</g>
	<g>
		<g>
			<path style="&st0;" d="M106.4691,227.6031c1.0637-1.7408,2.1049-3.4222,3.3995-4.9837c1.2644-1.5751,2.719-3.028,4.317-4.2995
				c0.7908-0.6454,1.6178-1.2511,2.4499-1.8355c0.8267-0.5849,1.6475-1.1659,2.3243-1.8739
				c1.4006-1.3929,1.8636-3.4285,2.3221-5.394c0.2111-0.0666,0.2111-0.0666,0.2111-0.0666c-0.1015,1.0178-0.211,2.045-0.4905,3.0602
				c-0.2676,1.0106-0.7489,2.0193-1.4708,2.8373c-0.7131,0.818-1.5692,1.4595-2.403,2.0582
				c-0.8363,0.5924-1.6522,1.1762-2.4499,1.7954c-1.5985,1.2344-3.0147,2.6444-4.441,4.0183
				C108.8122,224.3071,107.5622,225.8561,106.4691,227.6031z"/>
		</g>
	</g>
</g>
<ellipse id="n_x5F_SLK_18_" transform="matrix(0.6242 -0.7813 0.7813 0.6242 -146.0574 152.1489)" style="&st9;" cx="85.1231" cy="227.8943" rx="4.0455" ry="4.0454"/>
<ellipse id="n_x5F_SLK_19_" transform="matrix(0.6242 -0.7813 0.7813 0.6242 -138.3673 167.6802)" style="&st9;" cx="105.1122" cy="227.6665" rx="4.0455" ry="4.0454"/>
<text transform="matrix(1 0 0 1 98.9953 209.1168)" style="&st24; &st20; &st25;">RIO</text>
<text transform="matrix(1 0 0 1 63.7863 230.6187)" style="&st19; &st20; &st23;">RIOK1</text>
<text transform="matrix(1 0 0 1 89.7453 236.3882)" style="&st19; &st20; &st23;">RIOK2</text>
<text transform="matrix(1 0 0 1 148.903 93.0963)" style="&st19; &st20; &st23;">PIP5KL1</text>
<text transform="matrix(1 0 0 1 154.7838 74.8502)" style="&st19; &st20; &st23;">PIKFYVE</text>
<text transform="matrix(1 0 0 1 149.2985 38.0992)" style="&st19; &st20; &st23;">PIP4K2C</text>
<text transform="matrix(1 0 0 1 183.7731 20.8033)" style="&st19; &st20; &st23;">PIP4K2B</text>
<text transform="matrix(1 0 0 1 163.4293 26.6793)" style="&st19; &st20; &st23;">PIP4K2A</text>
<text transform="matrix(1 0 0 1 122.2155 71.0738)" style="&st19; &st20; &st23;">ITPKC</text>
<text transform="matrix(1 0 0 1 107.2482 48.3765)" style="&st19; &st20; &st23;">ITPKB</text>
<text transform="matrix(1 0 0 1 119.7252 34.9918)" style="&st19; &st20; &st23;">ITPKA</text>
<text transform="matrix(1 0 0 1 119.3922 88.3716)" style="&st19; &st20; &st23;">IPMK</text>
<text transform="matrix(1 0 0 1 97.7726 63.7252)" style="&st19; &st20; &st23;">IP6K3</text>
<text transform="matrix(1 0 0 1 108.6505 57.23)" style="&st19; &st20; &st23;">IP6K1</text>
<text transform="matrix(1 0 0 1 102.1886 78.0172)" style="&st19; &st20; &st23;">IP6K2</text>
<text transform="matrix(1 0 0 1 48.0431 121.8238)" style="&st19; &st20; &st23;">ALPK1</text>
<text transform="matrix(1 0 0 1 45.2843 131.9791)" style="&st19; &st20; &st23;">EEF2K</text>
<text transform="matrix(1 0 0 1 104.4142 111.3755)" style="&st19; &st20; &st23;">ALPK2</text>
<text transform="matrix(1 0 0 1 91.7413 99.0914)" style="&st19; &st20; &st23;">ALPK3</text>
<text transform="matrix(1 0 0 1 45.7404 111.8922)" style="&st19; &st20; &st23;">TRPM7</text>
<text transform="matrix(1 0 0 1 58.4357 101.6841)" style="&st19; &st20; &st23;">TRPM6</text>
<text transform="matrix(1 0 0 1 25.9552 170.6968)" style="&st19; &st20; &st23;">CHKA</text>
<text transform="matrix(1 0 0 1 57.6535 179.5279)" style="&st19; &st20; &st23;">CHKB</text>
<text transform="matrix(1 0 0 1 69.6876 205.6275)" style="&st19; &st20; &st23;">HYKK</text>
<text transform="matrix(1 0 0 1 23.2267 199.6226)" style="&st19; &st20; &st23;">ACAD11</text>
<text transform="matrix(1 0 0 1 40.9191 207.3375)" style="&st19; &st20; &st23;">ACAD10</text>
<text transform="matrix(1 0 0 1 12.6203 181.9371)" style="&st19; &st20; &st23;">FN3K</text>
<text transform="matrix(1 0 0 1 5.2687 191.7066)" style="&st19; &st20; &st23;">FN3KRP</text>
<text transform="matrix(1 0 0 1 17.3703 162.1529)" style="&st19; &st20; &st23;">ETNK2</text>
<text transform="matrix(1 0 0 1 19.1271 155.1236)" style="&st19; &st20; &st23;">ETNK1</text>
<text transform="matrix(1 0 0 1 100.9064 276.9507)" style="&st19; &st20; &st23;">ADCK2</text>
<text transform="matrix(1 0 0 1 124.9596 275.0386)" style="&st19; &st20; &st23;">ADCK1</text>
<text transform="matrix(1 0 0 1 91.7335 267.0015)" style="&st19; &st20; &st23;">ADCK5</text>
<text transform="matrix(1 0 0 1 132.8961 257.8599)" style="&st19; &st20; &st23;">COQ8A</text>
<text transform="matrix(1 0 0 1 143.9245 245.2623)" style="&st19; &st20; &st23;">COQ8B</text>
<text transform="matrix(1 0 0 1 245.2174 189.2027)" style="&st19; &st20; &st23;">IPPK</text>
<text transform="matrix(1 0 0 1 239.3561 177.7193)" style="&st19; &st20; &st23;">SELENOO</text>
<text transform="matrix(1 0 0 1 164.2164 61.9781)" style="&st19; &st20; &st23;">PIP5K1C</text>
<text transform="matrix(1 0 0 1 165.0973 55.3795)" style="&st19; &st20; &st23;">PIP5K1B</text>
<text transform="matrix(1 0 0 1 131.6315 227.1255)" style="&st24; &st20; &st25;">ABC1</text>
<text transform="matrix(1 0 0 1 187.8024 258.3365)" style="&st19; &st20; &st23;">FAM20B</text>
<text transform="matrix(1 0 0 1 153.3629 267.0015)" style="&st19; &st20; &st23;">FAM20C</text>
<text transform="matrix(1 0 0 1 174.4957 272.8443)" style="&st19; &st20; &st23;">FAM20A</text>
<text transform="matrix(1 0 0 1 177.109 41.0855)" style="&st19; &st20; &st23;">PIP5K1A</text>
<g>
	<g>
		<path style="&st5;" d="M70.1362,127.9934c0.6895,0.0174,1.3717,0.0079,2.0492-0.0275c0.6806-0.0083,1.3578-0.0294,2.0331-0.065
			l2.0211-0.2066l2.0298-0.1407c2.7112-0.1428,5.4397-0.106,8.1615,0.1103c2.7218,0.2163,5.4372,0.6122,8.1222,1.1878l2.0077,0.4655
			c0.6676,0.165,1.3234,0.3701,1.9994,0.5164c1.2542,0.5877,2.4823,1.2326,3.6131,2.0652c0.0977,0.1174,0.1184,0.0667,0.1129,0.0803
			c-0.7043-0.0824-1.3925-0.1883-2.0666-0.3197l-2.0398-0.3101c-1.2706-0.4491-2.5619-0.8354-3.86-1.2009
			c-2.6018-0.7094-5.2528-1.2464-7.9295-1.6072c-2.6766-0.3608-5.379-0.5454-8.0834-0.5501l-2.0283,0.0302l-2.0268,0.098
			l-2.0518-0.0967C71.5165,128.0225,70.8286,128.0112,70.1362,127.9934z"/>
	</g>
</g>
<text transform="matrix(1 0 0 1 100.9054 143.3668)" style="&st24; &st20; &st25;">Alpha</text>
<ellipse id="n_x5F_SLK_17_" transform="matrix(0.3792 -0.9253 0.9253 0.3792 -150.1928 208.8292)" style="&st9;" cx="80.5396" cy="216.3501" rx="4.0455" ry="4.0454"/>
<text transform="matrix(1 0 0 1 59.255 218.9254)" style="&st19; &st20; &st23;">RIOK3</text>
<g>
	<g>
		<g>
			<path style="&st28;" d="M210.0279,191.475c-5.5619,3.4205-11.643,6.0982-17.9694,8.0114
				c-6.3278,1.9032-12.9319,3.0569-19.5904,3.1245c-6.6395,0.031-13.4212-0.7642-19.6646-3.3238
				c-3.1131-1.2808-6.0344-3.0974-8.5127-5.4602c-2.4894-2.3696-4.3298-5.3349-5.9453-8.3082
				c-1.6093-2.9724-3.1712-6.0488-4.1038-9.4494c-0.962-3.3857-1.0432-7.1279-0.2159-10.6117
				c0.7956-3.5056,2.3949-6.8044,4.5612-9.6956c2.1761-2.8749,4.8867-5.3146,7.8638-7.2942c1.4861-0.9979,3.046-1.8728,4.6461-2.658
				c1.5773-0.7926,3.3317-1.4573,4.9772-2.0147c3.3306-1.1032,6.6534-1.9661,9.9932-2.7489
				c6.6882-1.5332,13.3778-2.7638,20.2935-3.5473c1.1715,7.2391,1.1715,7.2391,1.1715,7.2391
				c-6.5115,0.4119-13.1655,1.3088-19.6773,2.4766c-3.2542,0.5937-6.5008,1.2713-9.5916,2.1285
				c-0.7825,0.2054-1.5192,0.4473-2.2664,0.6797c-0.7124,0.2524-1.4047,0.4944-2.1329,0.8045
				c-1.4323,0.6013-2.8172,1.2929-4.143,2.0655c-2.6442,1.5517-5.0421,3.4574-6.9696,5.7215
				c-1.9271,2.2337-3.3846,4.8787-4.2185,7.6655c-0.4083,1.3948-0.6585,2.8228-0.7303,4.2471
				c-0.0562,1.4221,0.0612,2.8322,0.3677,4.282c0.595,2.8945,1.8689,5.818,3.3006,8.7898c1.4272,2.9568,2.9291,5.672,4.9461,7.8206
				c2.0279,2.1718,4.524,3.9558,7.3259,5.2812c5.5948,2.6788,12.1528,3.7985,18.6119,4.0825
				c6.4773,0.252,13.0374-0.5752,19.3942-2.16C198.1066,197.0239,204.2935,194.6437,210.0279,191.475z"/>
		</g>
	</g>
</g>
<rect x="158.9956" y="137.6214" transform="matrix(-0.9648 0.263 -0.263 -0.9648 355.3286 242.2769)" style="&st29;" width="4.9068" height="14.5974"/>
<rect x="146.4013" y="143.588" transform="matrix(-0.7589 0.6513 -0.6513 -0.7589 361.3498 165.9133)" style="&st29;" width="7.1134" height="12.5365"/>
<rect x="135.4905" y="154.9055" transform="matrix(-0.5396 0.8419 -0.8419 -0.5396 348.9409 133.5859)" style="&st29;" width="4.9068" height="14.5974"/>
<rect x="130.8397" y="169.2484" transform="matrix(-0.1393 0.9903 -0.9903 -0.1393 328.4092 67.6456)" style="&st29;" width="7.9331" height="14.5974"/>
<rect x="172.378" y="136.0688" transform="matrix(-1 -1.224647e-16 1.224647e-16 -1 349.6629 286.735)" style="&st29;" width="4.9068" height="14.5974"/>
<rect x="170.8024" y="198.0691" transform="matrix(0.9991 -0.0413 0.0413 0.9991 -8.1982 7.3347)" style="&st29;" width="4.9068" height="7.6637"/>
<rect x="183.1806" y="196.3208" transform="matrix(0.9648 -0.263 0.263 0.9648 -46.5469 55.9276)" style="&st29;" width="4.9068" height="11.0206"/>
<rect x="193.1688" y="193.136" transform="matrix(0.9495 -0.3138 0.3138 0.9495 -51.9856 71.4946)" style="&st29;" width="5.8107" height="8.1642"/>
<rect x="205.1084" y="189.0705" transform="matrix(0.866 -0.5 0.5 0.866 -69.4824 129.8498)" style="&st29;" width="4.9068" height="11.0206"/>
<rect x="140.9329" y="183.062" transform="matrix(0.6513 0.7589 -0.7589 0.6513 193.8633 -42.2986)" style="&st29;" width="4.0389" height="13.423"/>
<rect x="152.8057" y="191.1437" transform="matrix(0.9086 0.4177 -0.4177 0.9086 97.0698 -46.6385)" style="&st29;" width="4.5549" height="14.5974"/>
<ellipse id="n_x5F_SLK_00000157266608434953483700000013730539642001060013_" transform="matrix(0.6242 -0.7813 0.7813 0.6242 -138.6018 177.2059)" style="&st9;" cx="114.8966" cy="232.6732" rx="4.0455" ry="4.0454"/>
<text transform="matrix(1 0 0 1 102.1886 242.7388)" style="&st19; &st20; &st23;">TP53RK</text>
<g>
	<text transform="matrix(1 0 0 1 267.4087 221.3256)" style="&st30; &st20; &st31;">Legend</text>
	<circle style="&st32;" cx="294.2887" cy="237.4923" r="4.3336"/>
	<circle style="&st33;" cx="294.2887" cy="252.8966" r="4.3336"/>
	<g>
		<text transform="matrix(1 0 0 1 267.0815 241.1019)"><tspan x="0" y="0" style="&st30; &st34; &st31;">ePK</tspan><tspan x="1.0054" y="13.0591" style="&st30; &st34; &st31;">eLK</tspan><tspan x="0" y="26.1177" style="&st30; &st34; &st31;">aPK</tspan></text>
	</g>
	<rect x="260.2475" y="208.9969" style="&st35;" width="49.4541" height="67.4837"/>
	<circle style="&st36;" cx="294.2887" cy="265.945" r="4.3336"/>
</g>
</svg>
